<svg xmlns="http://www.w3.org/2000/svg" xmlns:xlink="http://www.w3.org/1999/xlink" width="66" height="26" xmlns:v="https://vecta.io/nano"><g fill="none" fill-rule="evenodd"><path d="M7 4h48c6.075 0 11 4.925 11 11s-4.925 11-11 11H7a7 7 0 0 1-7-7v-8a7 7 0 0 1 7-7z" fill="#b73735"/><rect stroke="#b73735" fill="#fff" x=".5" y=".5" width="15" height="25" rx="2"/><circle fill="#561716" cx="8" cy="22" r="1"/><g fill-rule="nonzero"><path d="M6.557 12.827c-.016.007-.02.009-.026.009l.034-.009h-.008zm-.107 1.316c.049-.085.082-.174.098-.266a1.64 1.64 0 0 0 .024-.277l-.003-.117a.98.98 0 0 0-.013-.116l-.101.033-.112.039-.053.019c-.025.01-.044.016-.059.02l.011-.005-.657.225-.673.286h.005l-.324.169c-.113.061-.227.132-.341.213l-.144.105c-.046.037-.094.081-.144.133-.039.037-.074.075-.106.114s-.051.073-.058.102l.005-.005c-.007.034.016.072.069.116.025.022.062.042.112.061l.149.05c.071.018.147.032.229.039l.245.011.178-.009.189-.019a2.32 2.32 0 0 0 .428-.1c.144-.048.284-.109.423-.183h-.006a1.86 1.86 0 0 0 .354-.266 1.33 1.33 0 0 0 .269-.366l.006-.006zm6.39-3.356c.049.018.089.053.117.102s.042.106.042.169a.49.49 0 0 1-.053.211c-.029.055-.072.115-.13.178a1.22 1.22 0 0 1-.21.178c-.014.007-.027.015-.04.025l-.034.025.005-.006c-.015.007-.032.018-.053.033s-.042.028-.064.039h-.005l-.032.017-.032.017-.231.108-.375.158-.726.244-1.109.294.006-.005-.357.086-.388.086-.162.033-.168.033-.25.055-.261.055.005-.005-.101.025-.106.025-.231.052-.218.05-.229.055-.259.069c.025.155.035.324.032.505-.004.118-.02.238-.051.361s-.074.242-.131.361c-.11.229-.279.444-.508.643s-.494.357-.796.472c-.198.067-.395.114-.588.145a2.81 2.81 0 0 1-.546.033c-.188-.003-.364-.024-.529-.061a1.6 1.6 0 0 1-.449-.172c-.082-.052-.157-.116-.226-.192s-.118-.171-.146-.286a.63.63 0 0 1 .005-.313.91.91 0 0 1 .117-.258c.089-.126.181-.229.277-.31l.282-.222a4.27 4.27 0 0 1 .535-.305l.551-.25c.337-.144.726-.286 1.165-.427l.245-.072-.112-.285-.106-.252v.005l-.359-.68-.397-.662-.333-.507-.407-.596-.399-.582c-.007-.007-.015-.016-.021-.025a.17.17 0 0 1-.022-.042v-.005l-.38-.574-.418-.707a5.55 5.55 0 0 1-.224-.452 3.29 3.29 0 0 1-.181-.524v.006a1.89 1.89 0 0 1-.061-.33 1.71 1.71 0 0 1-.003-.341c.011-.122.046-.244.106-.366s.136-.231.229-.327c.103-.096.206-.173.309-.23s.202-.104.298-.141c.103-.037.206-.067.309-.091l.288-.063c.184-.03.368-.05.548-.058L5.635 5l.985.033c.309.022.599.061.873.116l.396.102c.136.039.271.09.402.153s.252.129.373.208.222.164.304.252c.093.108.168.225.226.352s.098.256.12.386a1.7 1.7 0 0 1 .016.244c0 .148-.02.294-.059.438-.049.181-.11.349-.181.502l-.202.391-.194.305-.168.238-.25.316-.138.16a.87.87 0 0 1-.205.178.84.84 0 0 1-.21.094c-.068.018-.131.023-.189.014s-.104-.034-.136-.075-.049-.083-.051-.139.007-.116.027-.18a.89.89 0 0 1 .091-.199c.041-.069.09-.134.146-.197l.096-.094.032-.033a.62.62 0 0 0 .037-.044l.046-.055.061-.067h-.005l.115-.133.146-.178-.005.005.165-.238c.06-.088.12-.19.181-.305l.085-.194.08-.205c.018-.063.032-.134.042-.213s.013-.16.005-.241a1.05 1.05 0 0 0-.072-.225c-.034-.075-.08-.145-.141-.208a1.19 1.19 0 0 0-.25-.194 1.94 1.94 0 0 0-.33-.155 4.28 4.28 0 0 0-.857-.219 10 10 0 0 0-1.011-.102l-.253-.009-.258-.003-.324.006-.34.022-.322.042c-.108.017-.208.04-.301.069a1.64 1.64 0 0 0-.277.106c-.092.044-.176.104-.25.178-.06.055-.105.121-.133.197s-.044.153-.048.23c-.007.092-.001.183.018.271l.067.261v-.006a3.8 3.8 0 0 0 .215.524l.242.446.457.73.404.59c-.007-.007-.002-.001.016.019l.059.075c.007.007.012.015.016.022s.009.015.016.022l-.005-.006.224.316.085.124.086.12.521.738.415.638.24.391.213.413.12.258.115.291 1.061-.283.897-.216-.005.005.091-.022.091-.022.115-.025.115-.025-.005.005.947-.258.713-.241.436-.18.304-.147.232-.125.205-.136.149-.097.128-.075c.064-.03.12-.05.168-.061s.098-.005.155.02" fill="#b73735"/><g fill="#fff"><path d="M28.884 15.272c0 .4-.071.772-.212 1.116a2.76 2.76 0 0 1-.58.892c-.245.251-.537.448-.876.592a2.76 2.76 0 0 1-1.092.216c-.405 0-.787-.075-1.144-.224s-.667-.353-.928-.612a2.87 2.87 0 0 1-.62-.92c-.152-.355-.228-.732-.228-1.132s.076-.777.228-1.132.357-.661.616-.92.567-.463.924-.612.739-.224 1.144-.224a3.13 3.13 0 0 1 1.256.256 2.83 2.83 0 0 1 1 .712l-.576.56a2.12 2.12 0 0 0-.756-.556 2.26 2.26 0 0 0-.924-.196 2.07 2.07 0 0 0-.812.16 1.97 1.97 0 0 0-.656.444 2.05 2.05 0 0 0-.432.672 2.22 2.22 0 0 0-.156.836 2.17 2.17 0 0 0 .16.836 2.1 2.1 0 0 0 .436.672 2.02 2.02 0 0 0 .656.448c.253.109.527.164.82.164.496 0 .919-.151 1.268-.452s.551-.684.604-1.148H26.14v-.736h2.744v.288zM30.05 18v-5.6h4.128v.736H30.89v1.68h2.16v.72h-2.16v1.728h3.32V18zm4.877-4.856V12.4h4.776v.744h-1.968V18h-.84v-4.856zM42.091 18l2.32-5.6h.984l2.288 5.6h-.912l-.648-1.64h-2.504L42.963 18h-.872zm1.808-2.336h1.952l-.976-2.456-.976 2.456z"/><use xlink:href="#B"/><use xlink:href="#B" x="5.573"/></g></g></g><defs ><path id="B" d="M48.545 18v-5.6h2.592c.544 0 .985.156 1.324.468s.508.716.508 1.212c0 .491-.171.891-.512 1.2s-.781.464-1.32.464h-1.752V18h-.84zm2.504-4.864h-1.664v1.896h1.664c.325 0 .585-.087.78-.26a.88.88 0 0 0 .292-.692c0-.288-.097-.517-.292-.688s-.455-.256-.78-.256z"/></defs></svg>