<svg width="149" height="12" viewBox="0 0 149 12" fill="none" xmlns="http://www.w3.org/2000/svg">
<path d="M2.9765 9.60988H9.87484C10.0437 9.60988 10.1731 9.56923 10.2618 9.4953C10.3506 9.41769 10.4208 9.28093 10.4751 9.08504H10.7401V12H10.4751C10.4196 11.8004 10.3494 11.6637 10.2618 11.5861C10.1731 11.5084 10.0449 11.4715 9.87484 11.4715H0V11.2091C0.194736 11.1536 0.335242 11.0834 0.41289 10.9947C0.490537 10.906 0.527513 10.7766 0.527513 10.6066V1.06579C0.527513 0.895771 0.48684 0.766408 0.41289 0.677702C0.335242 0.588996 0.199666 0.518771 0 0.46333V0.199677H3.50278V0.462098C3.30435 0.510147 3.16754 0.580372 3.09359 0.672774C3.01594 0.765176 2.97897 0.894539 2.97897 1.06456V9.60988H2.97527H2.9765Z" fill="white"/>
<path d="M18.7477 1.9158C17.6791 1.9158 16.7843 2.23366 16.0732 2.87431C15.2301 3.62831 14.8062 4.6164 14.8062 5.83733C14.8062 7.05827 15.2264 8.04512 16.0732 8.80035C16.788 9.43608 17.6828 9.75887 18.7662 9.75887C19.8496 9.75887 20.7407 9.44101 21.4518 8.80035C21.8758 8.41966 22.1963 7.95642 22.4243 7.4057C22.6227 6.91782 22.7189 6.41023 22.7189 5.88908C22.7189 4.6127 22.2949 3.61106 21.4518 2.87801C20.7333 2.25337 19.8348 1.93058 18.7526 1.91949M18.7453 0.00369607C20.7012 0.00369607 22.2554 0.535931 23.4004 1.59794C24.612 2.71169 25.2196 4.147 25.2196 5.90756C25.2196 6.98805 24.9287 7.99338 24.347 8.92972C23.2131 10.7568 21.3483 11.671 18.76 11.671C16.8188 11.671 15.2757 11.1387 14.1271 10.0767C13.512 9.51123 13.0437 8.82992 12.7269 8.03896C12.4471 7.3404 12.3066 6.60365 12.3066 5.83487C12.3066 4.70634 12.5938 3.67513 13.1719 2.73879C14.2725 0.943731 16.1286 0.0332647 18.7403 0" fill="white"/>
<path d="M37.2488 6.54707H30.7769V10.6078C30.7769 10.7705 30.8176 10.8998 30.8952 10.9922C30.9729 11.0809 31.1085 11.1548 31.3044 11.2029V11.4653H27.8016V11.2029C28.0001 11.1475 28.1369 11.0772 28.2145 10.9885C28.2922 10.8998 28.3291 10.7741 28.3291 10.6078V1.0584C28.3291 0.892075 28.2885 0.766408 28.2145 0.677702C28.1369 0.588996 28.0013 0.518771 27.8016 0.46333V0.199677H31.3044V0.462098C31.106 0.510147 30.9692 0.580372 30.8915 0.672774C30.8139 0.765176 30.7769 0.890843 30.7769 1.05717V4.68918H37.2488V1.0584C37.2488 0.892075 37.2118 0.766408 37.1342 0.674006C37.0565 0.581604 36.921 0.515075 36.7213 0.46333V0.199677H40.2241V0.462098C40.0293 0.517539 39.8888 0.587764 39.8149 0.67647C39.7372 0.765176 39.7003 0.890843 39.7003 1.05717V10.6078C39.7003 10.7705 39.7409 10.8998 39.8149 10.9885C39.8925 11.0772 40.0281 11.1475 40.2241 11.2029V11.4653H36.7213V11.2029C36.9123 11.1548 37.0491 11.0846 37.1305 10.9922C37.2081 10.8998 37.2488 10.7741 37.2488 10.6078V6.54707Z" fill="white"/>
<path d="M49.2672 1.91584C48.1949 1.91584 47.3038 2.2337 46.5927 2.87436C45.7496 3.62836 45.3257 4.61644 45.3257 5.83738C45.3257 7.05831 45.7496 8.04517 46.5927 8.8004C47.3075 9.43612 48.2023 9.75891 49.2857 9.75891C50.3691 9.75891 51.2602 9.44105 51.9676 8.8004C52.3916 8.4197 52.7158 7.95646 52.9401 7.40575C53.1385 6.91786 53.2384 6.41027 53.2384 5.88912C53.2384 4.61274 52.8144 3.61111 51.9713 2.87805C51.2528 2.25342 50.3543 1.93063 49.2721 1.91954M49.2647 0.0037384C51.2244 0.0037384 52.7749 0.535973 53.9199 1.59798C55.1315 2.71173 55.7391 4.14704 55.7391 5.9076C55.7391 6.98809 55.4482 7.99342 54.8665 8.92976C53.7326 10.7569 51.8678 11.671 49.2795 11.671C47.3383 11.671 45.7952 11.1388 44.6502 10.0768C44.0352 9.51128 43.5669 8.82997 43.2501 8.03901C42.9703 7.34045 42.8298 6.6037 42.8298 5.83491C42.8298 4.70638 43.117 3.67517 43.6914 2.73883C44.792 0.947469 46.6494 0.0370031 49.2598 0.0037384" fill="white"/>
<path d="M61.0863 3.74668V10.6004C61.0863 10.7705 61.127 10.8998 61.201 10.9885C61.2786 11.0772 61.4142 11.1475 61.6138 11.2029V11.4653H58.3169V11.2029C58.5153 11.1475 58.6521 11.0772 58.7298 10.9885C58.8074 10.8998 58.8444 10.7705 58.8444 10.6004V1.0584C58.8444 0.892075 58.8074 0.766408 58.7298 0.677702C58.6521 0.588996 58.5166 0.518771 58.3169 0.46333V0.199677H62.1327V0.462098C61.8973 0.521235 61.779 0.650598 61.779 0.842794C61.779 0.975852 61.8567 1.12 62.007 1.27893L68.1991 7.7446V1.0584C68.1991 0.892075 68.1585 0.766408 68.0845 0.677702C68.0069 0.588996 67.8713 0.518771 67.6753 0.46333V0.199677H70.9723V0.462098C70.7738 0.517539 70.637 0.587764 70.5594 0.67647C70.4817 0.765176 70.4448 0.890843 70.4448 1.05717V10.6004C70.4448 10.7705 70.4854 10.8998 70.5594 10.9885C70.637 11.0772 70.7726 11.1475 70.9723 11.2029V11.4653H67.4362V11.2029C67.6679 11.1548 67.7825 11.0366 67.7825 10.8481C67.7825 10.7372 67.6494 10.545 67.3807 10.2715L61.09 3.74668H61.0863Z" fill="white"/>
<path d="M79.9309 1.91584C78.8623 1.91584 77.9675 2.2337 77.2563 2.87436C76.4133 3.62836 75.9893 4.61644 75.9893 5.83738C75.9893 7.05831 76.4096 8.04517 77.2563 8.8004C77.9712 9.43612 78.866 9.75891 79.9481 9.75891C81.0303 9.75891 81.9226 9.44105 82.6301 8.8004C83.0541 8.4197 83.3782 7.95646 83.6025 7.40575C83.801 6.91786 83.8971 6.41027 83.8971 5.88912C83.8971 4.61274 83.4768 3.61111 82.6301 2.87805C81.9115 2.25342 81.013 1.93063 79.9309 1.91954M79.9235 0.0037384C81.8832 0.0037384 83.4337 0.535973 84.5787 1.59798C85.7902 2.71173 86.3978 4.14704 86.3978 5.9076C86.3978 6.98809 86.107 7.99342 85.5252 8.92976C84.3913 10.7569 82.5265 11.671 79.9383 11.671C77.9971 11.671 76.4503 11.1388 75.304 10.0768C74.689 9.51128 74.2244 8.82997 73.9039 8.03901C73.6241 7.34045 73.4836 6.6037 73.4836 5.83491C73.4836 4.70638 73.7708 3.67517 74.3452 2.73883C75.4483 0.947469 77.3056 0.0370031 79.9161 0.0037384" fill="white"/>
<path d="M91.765 10.5079H91.2646V0.151535H91.765V10.5079Z" fill="white"/>
<path d="M102.767 0.155234V10.6669H102.531L95.4853 1.23819V10.5116H94.9849V0H95.2203L102.267 9.51V0.158932H102.767V0.155234Z" fill="white"/>
<path d="M112.171 0.609876H106.484V4.94168H111.236V5.39629H106.484V10.5117H105.983V0.155258H112.171V0.609876Z" fill="white"/>
<path d="M114.516 10.5079H114.015V0.151535H114.516V10.5079Z" fill="white"/>
<path d="M129.235 10.6878H128.735V0.331436H129.235V10.6878Z" fill="white"/>
<path d="M139.544 0.609876H135.655V10.5117H135.153V0.609876H131.263V0.155258H139.543V0.609876H139.544Z" fill="white"/>
<path d="M144.981 6.02091V10.5079H144.481V6.02091L140.885 0.150314H141.415L144.727 5.59463L148.039 0.150314H148.569L144.974 6.02091H144.981Z" fill="white"/>
<path d="M124.508 2.9593C125.939 2.99011 127.089 4.15806 127.089 5.59584C127.089 7.05209 125.909 8.23237 124.452 8.23237C122.995 8.23237 121.568 5.59584 121.568 5.59584L121.6 5.65374C121.6 5.65374 120.173 3.01721 118.716 3.01721C117.259 3.01721 116.078 4.19749 116.078 5.65374C116.078 7.11 117.228 8.25948 118.659 8.29028" stroke="white" stroke-miterlimit="10"/>
</svg>
